<?xml version="1.0" encoding="utf-8"?>
<!-- Generator: Adobe Illustrator 16.0.0, SVG Export Plug-In . SVG Version: 6.00 Build 0)  -->
<!DOCTYPE svg PUBLIC "-//W3C//DTD SVG 1.1//EN" "http://www.w3.org/Graphics/SVG/1.1/DTD/svg11.dtd">
<svg version="1.1" id="light" xmlns="http://www.w3.org/2000/svg" xmlns:xlink="http://www.w3.org/1999/xlink" x="0px" y="0px"
	 width="490.667px" height="469.333px" viewBox="0 21.333 490.667 469.333" enable-background="new 0 21.333 490.667 469.333"
	 xml:space="preserve">
<g>
	<path d="M160.001,245.334H480c5.889,0,10.667,4.777,10.667,10.666c0,5.888-4.778,10.667-10.667,10.667H160.001
		c-5.889,0-10.668-4.778-10.668-10.667C149.333,250.112,154.112,245.334,160.001,245.334z"/>
</g>
<g>
	<path d="M245.333,160c2.731,0,5.461,1.045,7.552,3.114c4.16,4.16,4.16,10.923,0,15.083L175.083,256l77.781,77.781
		c4.16,4.16,4.16,10.923,0,15.083s-10.923,4.16-15.083,0l-85.333-85.333c-4.16-4.16-4.16-10.923,0-15.083l85.333-85.334
		C239.872,161.045,242.603,160,245.333,160z"/>
</g>
<g>
	<path d="M234.667,21.333c99.307,0,188.224,62.87,221.27,156.438c1.962,5.568-0.96,11.648-6.507,13.61
		c-5.568,1.921-11.648-0.96-13.611-6.506C405.781,99.819,324.949,42.667,234.667,42.667C117.035,42.667,21.334,138.369,21.334,256
		c0,117.631,95.701,213.333,213.333,213.333c90.282,0,171.114-57.152,201.131-142.229c1.962-5.547,8.063-8.427,13.61-6.507
		c5.547,1.963,8.469,8.043,6.507,13.61c-33.024,93.59-121.941,156.459-221.248,156.459C105.28,490.667,0,385.387,0,256
		C0,126.614,105.28,21.333,234.667,21.333z"/>
</g>
</svg>
